<svg width="791" height="178" viewBox="0 0 791 178" fill="none" xmlns="http://www.w3.org/2000/svg">
    <path d="M240.656 123V66.36H218.384V55.8H275.408V66.36H253.136V123H240.656ZM283.622 123V71.736H295.622V123H283.622ZM289.67 63.288C287.43 63.288 285.574 62.584 284.102 61.176C282.694 59.768 281.99 58.072 281.99 56.088C281.99 54.04 282.694 52.344 284.102 51C285.574 49.592 287.43 48.888 289.67 48.888C291.91 48.888 293.734 49.56 295.142 50.904C296.614 52.184 297.35 53.816 297.35 55.8C297.35 57.912 296.646 59.704 295.238 61.176C293.83 62.584 291.974 63.288 289.67 63.288ZM376.076 71.16C380.172 71.16 383.788 71.96 386.924 73.56C390.124 75.16 392.62 77.624 394.412 80.952C396.204 84.216 397.1 88.44 397.1 93.624V123H385.1V95.16C385.1 90.616 384.108 87.224 382.124 84.984C380.14 82.744 377.292 81.624 373.58 81.624C370.956 81.624 368.62 82.2 366.572 83.352C364.588 84.504 363.02 86.2 361.868 88.44C360.78 90.68 360.236 93.528 360.236 96.984V123H348.236V95.16C348.236 90.616 347.244 87.224 345.26 84.984C343.276 82.744 340.428 81.624 336.716 81.624C334.092 81.624 331.756 82.2 329.708 83.352C327.724 84.504 326.156 86.2 325.004 88.44C323.916 90.68 323.372 93.528 323.372 96.984V123H311.372V71.736H322.796V85.368L320.78 81.336C322.508 78.008 325.004 75.48 328.268 73.752C331.596 72.024 335.372 71.16 339.596 71.16C344.396 71.16 348.556 72.344 352.076 74.712C355.66 77.08 358.028 80.664 359.18 85.464L354.476 83.832C356.14 79.992 358.892 76.92 362.732 74.616C366.572 72.312 371.02 71.16 376.076 71.16ZM436.624 123.672C430.928 123.672 425.936 122.552 421.648 120.312C417.424 118.008 414.128 114.872 411.76 110.904C409.456 106.936 408.304 102.424 408.304 97.368C408.304 92.248 409.424 87.736 411.664 83.832C413.968 79.864 417.104 76.76 421.072 74.52C425.104 72.28 429.68 71.16 434.8 71.16C439.792 71.16 444.24 72.248 448.144 74.424C452.048 76.6 455.12 79.672 457.36 83.64C459.6 87.608 460.72 92.28 460.72 97.656C460.72 98.168 460.688 98.744 460.624 99.384C460.624 100.024 460.592 100.632 460.528 101.208H417.808V93.24H454.192L449.488 95.736C449.552 92.792 448.944 90.2 447.664 87.96C446.384 85.72 444.624 83.96 442.384 82.68C440.208 81.4 437.68 80.76 434.8 80.76C431.856 80.76 429.264 81.4 427.024 82.68C424.848 83.96 423.12 85.752 421.84 88.056C420.624 90.296 420.016 92.952 420.016 96.024V97.944C420.016 101.016 420.72 103.736 422.128 106.104C423.536 108.472 425.52 110.296 428.08 111.576C430.64 112.856 433.584 113.496 436.912 113.496C439.792 113.496 442.384 113.048 444.688 112.152C446.992 111.256 449.04 109.848 450.832 107.928L457.264 115.32C454.96 118.008 452.048 120.088 448.528 121.56C445.072 122.968 441.104 123.672 436.624 123.672ZM487.364 123L465.092 55.8H478.052L497.924 116.568H491.492L512.132 55.8H523.652L543.716 116.568H537.476L557.828 55.8H569.732L547.46 123H534.212L515.876 68.184H519.332L500.708 123H487.364ZM579.216 123V71.736H591.216V123H579.216ZM585.264 63.288C583.024 63.288 581.168 62.584 579.696 61.176C578.288 59.768 577.584 58.072 577.584 56.088C577.584 54.04 578.288 52.344 579.696 51C581.168 49.592 583.024 48.888 585.264 48.888C587.504 48.888 589.328 49.56 590.736 50.904C592.208 52.184 592.944 53.816 592.944 55.8C592.944 57.912 592.24 59.704 590.832 61.176C589.424 62.584 587.568 63.288 585.264 63.288ZM622.806 123.672C618.518 123.672 614.39 123.128 610.422 122.04C606.518 120.888 603.414 119.512 601.11 117.912L605.718 108.792C608.022 110.264 610.774 111.48 613.974 112.44C617.174 113.4 620.374 113.88 623.574 113.88C627.35 113.88 630.07 113.368 631.734 112.344C633.462 111.32 634.326 109.944 634.326 108.216C634.326 106.808 633.75 105.752 632.598 105.048C631.446 104.28 629.942 103.704 628.086 103.32C626.23 102.936 624.15 102.584 621.846 102.264C619.606 101.944 617.334 101.528 615.03 101.016C612.79 100.44 610.742 99.64 608.886 98.616C607.03 97.528 605.526 96.088 604.374 94.296C603.222 92.504 602.646 90.136 602.646 87.192C602.646 83.928 603.574 81.112 605.43 78.744C607.286 76.312 609.878 74.456 613.206 73.176C616.598 71.832 620.598 71.16 625.206 71.16C628.662 71.16 632.15 71.544 635.67 72.312C639.19 73.08 642.102 74.168 644.406 75.576L639.798 84.696C637.366 83.224 634.902 82.232 632.406 81.72C629.974 81.144 627.542 80.856 625.11 80.856C621.462 80.856 618.742 81.4 616.95 82.488C615.222 83.576 614.358 84.952 614.358 86.616C614.358 88.152 614.934 89.304 616.086 90.072C617.238 90.84 618.742 91.448 620.598 91.896C622.454 92.344 624.502 92.728 626.742 93.048C629.046 93.304 631.318 93.72 633.558 94.296C635.798 94.872 637.846 95.672 639.702 96.696C641.622 97.656 643.158 99.032 644.31 100.824C645.462 102.616 646.038 104.952 646.038 107.832C646.038 111.032 645.078 113.816 643.158 116.184C641.302 118.552 638.646 120.408 635.19 121.752C631.734 123.032 627.606 123.672 622.806 123.672ZM680.468 123.672C674.772 123.672 669.78 122.552 665.492 120.312C661.268 118.008 657.972 114.872 655.604 110.904C653.3 106.936 652.148 102.424 652.148 97.368C652.148 92.248 653.268 87.736 655.508 83.832C657.812 79.864 660.948 76.76 664.916 74.52C668.948 72.28 673.524 71.16 678.644 71.16C683.636 71.16 688.084 72.248 691.988 74.424C695.892 76.6 698.964 79.672 701.204 83.64C703.444 87.608 704.564 92.28 704.564 97.656C704.564 98.168 704.532 98.744 704.468 99.384C704.468 100.024 704.436 100.632 704.372 101.208H661.652V93.24H698.036L693.332 95.736C693.396 92.792 692.788 90.2 691.508 87.96C690.228 85.72 688.468 83.96 686.228 82.68C684.052 81.4 681.524 80.76 678.644 80.76C675.7 80.76 673.108 81.4 670.868 82.68C668.692 83.96 666.964 85.752 665.684 88.056C664.468 90.296 663.86 92.952 663.86 96.024V97.944C663.86 101.016 664.564 103.736 665.972 106.104C667.38 108.472 669.364 110.296 671.924 111.576C674.484 112.856 677.428 113.496 680.756 113.496C683.636 113.496 686.228 113.048 688.532 112.152C690.836 111.256 692.884 109.848 694.676 107.928L701.108 115.32C698.804 118.008 695.892 120.088 692.372 121.56C688.916 122.968 684.948 123.672 680.468 123.672Z" fill="#5F81D5"/>
    <mask id="mask0_940_798" style="mask-type:luminance" maskUnits="userSpaceOnUse" x="12" y="0" width="178" height="178">
        <path d="M12 0H189.583V177.583H12V0Z" fill="white"/>
    </mask>
    <g mask="url(#mask0_940_798)">
        <mask id="mask1_940_798" style="mask-type:luminance" maskUnits="userSpaceOnUse" x="12" y="0" width="178" height="178">
            <path d="M12 88.7917C12 137.828 51.7552 177.583 100.792 177.583C149.833 177.583 189.583 137.828 189.583 88.7917C189.583 39.7552 149.833 0 100.792 0C51.7552 0 12 39.7552 12 88.7917Z" fill="white"/>
        </mask>
        <g mask="url(#mask1_940_798)">
            <path d="M12 177.583H189.583V0H12V177.583Z" fill="url(#paint0_linear_940_798)"/>
        </g>
    </g>
    <mask id="mask2_940_798" style="mask-type:luminance" maskUnits="userSpaceOnUse" x="50" y="39" width="99" height="99">
        <path d="M50.6927 39.6979H148.896V137.896H50.6927V39.6979Z" fill="white"/>
    </mask>
    <g mask="url(#mask2_940_798)">
        <mask id="mask3_940_798" style="mask-type:luminance" maskUnits="userSpaceOnUse" x="50" y="39" width="99" height="99">
            <path d="M99.7917 39.6979C72.6771 39.6979 50.6927 61.677 50.6927 88.7968C50.6927 115.917 72.6771 137.896 99.7917 137.896C126.912 137.896 148.896 115.917 148.896 88.7968C148.896 61.677 126.912 39.6979 99.7917 39.6979Z" fill="white"/>
        </mask>
        <g mask="url(#mask3_940_798)">
            <path d="M50.6927 39.6979H148.896V137.896H50.6927V39.6979Z" fill="white"/>
        </g>
    </g>
    <path d="M17.5157 120.354C80.6616 118.01 133.922 93.8542 177.307 47.8958" stroke="url(#paint1_linear_940_798)" stroke-width="34" stroke-linecap="round"/>
    <defs>
        <linearGradient id="paint0_linear_940_798" x1="12.0014" y1="177.583" x2="189.585" y2="-0.000736855" gradientUnits="userSpaceOnUse">
            <stop stop-color="#60A5FA"/>
            <stop offset="0.0078125" stop-color="#60A5F9"/>
            <stop offset="0.015625" stop-color="#60A4F9"/>
            <stop offset="0.0234375" stop-color="#60A3F8"/>
            <stop offset="0.03125" stop-color="#60A2F7"/>
            <stop offset="0.0390625" stop-color="#60A1F6"/>
            <stop offset="0.046875" stop-color="#60A0F5"/>
            <stop offset="0.0546875" stop-color="#609FF4"/>
            <stop offset="0.0625" stop-color="#5F9EF3"/>
            <stop offset="0.0703125" stop-color="#5F9EF2"/>
            <stop offset="0.078125" stop-color="#5F9DF1"/>
            <stop offset="0.0859375" stop-color="#5F9CF0"/>
            <stop offset="0.09375" stop-color="#5F9BEF"/>
            <stop offset="0.101562" stop-color="#5F9AEF"/>
            <stop offset="0.109375" stop-color="#5F99EE"/>
            <stop offset="0.117188" stop-color="#5F98ED"/>
            <stop offset="0.125" stop-color="#5F97EC"/>
            <stop offset="0.132812" stop-color="#5F97EB"/>
            <stop offset="0.140625" stop-color="#5F96EA"/>
            <stop offset="0.148438" stop-color="#5F95E9"/>
            <stop offset="0.15625" stop-color="#5F94E8"/>
            <stop offset="0.164062" stop-color="#5F93E7"/>
            <stop offset="0.171875" stop-color="#5F92E6"/>
            <stop offset="0.179688" stop-color="#5F91E6"/>
            <stop offset="0.1875" stop-color="#5F90E5"/>
            <stop offset="0.195312" stop-color="#5F90E4"/>
            <stop offset="0.203125" stop-color="#5F8FE3"/>
            <stop offset="0.210938" stop-color="#5E8EE2"/>
            <stop offset="0.21875" stop-color="#5E8DE1"/>
            <stop offset="0.226562" stop-color="#5E8CE0"/>
            <stop offset="0.234375" stop-color="#5E8BDF"/>
            <stop offset="0.242188" stop-color="#5E8ADE"/>
            <stop offset="0.25" stop-color="#5E89DD"/>
            <stop offset="0.257812" stop-color="#5E89DC"/>
            <stop offset="0.265625" stop-color="#5E88DC"/>
            <stop offset="0.273437" stop-color="#5E87DB"/>
            <stop offset="0.28125" stop-color="#5E86DA"/>
            <stop offset="0.289062" stop-color="#5E85D9"/>
            <stop offset="0.296875" stop-color="#5E84D8"/>
            <stop offset="0.304688" stop-color="#5E83D7"/>
            <stop offset="0.3125" stop-color="#5E82D6"/>
            <stop offset="0.320312" stop-color="#5E82D5"/>
            <stop offset="0.328125" stop-color="#5E81D4"/>
            <stop offset="0.335938" stop-color="#5E80D3"/>
            <stop offset="0.34375" stop-color="#5E7FD2"/>
            <stop offset="0.351562" stop-color="#5D7ED2"/>
            <stop offset="0.359375" stop-color="#5D7DD1"/>
            <stop offset="0.367187" stop-color="#5D7CD0"/>
            <stop offset="0.375" stop-color="#5D7BCF"/>
            <stop offset="0.382813" stop-color="#5D7BCE"/>
            <stop offset="0.390625" stop-color="#5D7ACD"/>
            <stop offset="0.398438" stop-color="#5D79CC"/>
            <stop offset="0.40625" stop-color="#5D78CB"/>
            <stop offset="0.414062" stop-color="#5D77CA"/>
            <stop offset="0.421875" stop-color="#5D76C9"/>
            <stop offset="0.429688" stop-color="#5D75C8"/>
            <stop offset="0.4375" stop-color="#5D74C8"/>
            <stop offset="0.445312" stop-color="#5D74C7"/>
            <stop offset="0.453125" stop-color="#5D73C6"/>
            <stop offset="0.460938" stop-color="#5D72C5"/>
            <stop offset="0.46875" stop-color="#5D71C4"/>
            <stop offset="0.476563" stop-color="#5D70C3"/>
            <stop offset="0.484375" stop-color="#5D6FC2"/>
            <stop offset="0.492188" stop-color="#5D6EC1"/>
            <stop offset="0.5" stop-color="#5C6DBF"/>
            <stop offset="0.507813" stop-color="#5C6CBF"/>
            <stop offset="0.515625" stop-color="#5C6CBF"/>
            <stop offset="0.523438" stop-color="#5C6BBE"/>
            <stop offset="0.53125" stop-color="#5C6ABD"/>
            <stop offset="0.539062" stop-color="#5C69BC"/>
            <stop offset="0.546875" stop-color="#5C68BB"/>
            <stop offset="0.554688" stop-color="#5C67BA"/>
            <stop offset="0.5625" stop-color="#5C66B9"/>
            <stop offset="0.570312" stop-color="#5C66B8"/>
            <stop offset="0.578125" stop-color="#5C65B7"/>
            <stop offset="0.585937" stop-color="#5C64B6"/>
            <stop offset="0.59375" stop-color="#5C63B5"/>
            <stop offset="0.601563" stop-color="#5C62B5"/>
            <stop offset="0.609375" stop-color="#5C61B4"/>
            <stop offset="0.617188" stop-color="#5C60B3"/>
            <stop offset="0.625" stop-color="#5C5FB2"/>
            <stop offset="0.632812" stop-color="#5C5FB1"/>
            <stop offset="0.640625" stop-color="#5B5EB0"/>
            <stop offset="0.648438" stop-color="#5B5DAF"/>
            <stop offset="0.65625" stop-color="#5B5CAE"/>
            <stop offset="0.664062" stop-color="#5B5BAD"/>
            <stop offset="0.671875" stop-color="#5B5AAC"/>
            <stop offset="0.679687" stop-color="#5B59AB"/>
            <stop offset="0.6875" stop-color="#5B58AB"/>
            <stop offset="0.695313" stop-color="#5B58AA"/>
            <stop offset="0.703125" stop-color="#5B57A9"/>
            <stop offset="0.710938" stop-color="#5B56A8"/>
            <stop offset="0.71875" stop-color="#5B55A7"/>
            <stop offset="0.726562" stop-color="#5B54A6"/>
            <stop offset="0.734375" stop-color="#5B53A5"/>
            <stop offset="0.742188" stop-color="#5B52A4"/>
            <stop offset="0.75" stop-color="#5B51A3"/>
            <stop offset="0.757812" stop-color="#5B51A2"/>
            <stop offset="0.765625" stop-color="#5B50A2"/>
            <stop offset="0.773438" stop-color="#5B4FA1"/>
            <stop offset="0.78125" stop-color="#5B4EA0"/>
            <stop offset="0.789062" stop-color="#5A4D9F"/>
            <stop offset="0.796875" stop-color="#5A4C9E"/>
            <stop offset="0.804687" stop-color="#5A4B9D"/>
            <stop offset="0.8125" stop-color="#5A4A9C"/>
            <stop offset="0.820313" stop-color="#5A4A9B"/>
            <stop offset="0.828125" stop-color="#5A499A"/>
            <stop offset="0.835938" stop-color="#5A4899"/>
            <stop offset="0.84375" stop-color="#5A4798"/>
            <stop offset="0.851562" stop-color="#5A4698"/>
            <stop offset="0.859375" stop-color="#5A4597"/>
            <stop offset="0.867188" stop-color="#5A4496"/>
            <stop offset="0.875" stop-color="#5A4395"/>
            <stop offset="0.882812" stop-color="#5A4394"/>
            <stop offset="0.890625" stop-color="#5A4293"/>
            <stop offset="0.898437" stop-color="#5A4192"/>
            <stop offset="0.90625" stop-color="#5A4091"/>
            <stop offset="0.914063" stop-color="#5A3F90"/>
            <stop offset="0.921875" stop-color="#5A3E8F"/>
            <stop offset="0.929688" stop-color="#5A3D8E"/>
            <stop offset="0.9375" stop-color="#593C8E"/>
            <stop offset="0.945312" stop-color="#593C8D"/>
            <stop offset="0.953125" stop-color="#593B8C"/>
            <stop offset="0.960938" stop-color="#593A8B"/>
            <stop offset="0.96875" stop-color="#59398A"/>
            <stop offset="0.976562" stop-color="#593889"/>
            <stop offset="0.984375" stop-color="#593788"/>
            <stop offset="0.992187" stop-color="#593687"/>
            <stop offset="1" stop-color="#593586"/>
        </linearGradient>
        <linearGradient id="paint1_linear_940_798" x1="-33.0316" y1="39.8753" x2="224.664" y2="136.846" gradientUnits="userSpaceOnUse">
            <stop stop-color="#60A5FA"/>
            <stop offset="0.125" stop-color="#60A5FA"/>
            <stop offset="0.15625" stop-color="#60A5FA"/>
            <stop offset="0.164062" stop-color="#60A5F9"/>
            <stop offset="0.167969" stop-color="#60A3F8"/>
            <stop offset="0.171875" stop-color="#60A3F8"/>
            <stop offset="0.175781" stop-color="#60A2F7"/>
            <stop offset="0.179687" stop-color="#60A2F6"/>
            <stop offset="0.183594" stop-color="#60A1F6"/>
            <stop offset="0.1875" stop-color="#60A0F5"/>
            <stop offset="0.191406" stop-color="#60A0F5"/>
            <stop offset="0.195312" stop-color="#609FF4"/>
            <stop offset="0.199219" stop-color="#5F9FF3"/>
            <stop offset="0.203125" stop-color="#5F9EF3"/>
            <stop offset="0.207031" stop-color="#5F9DF2"/>
            <stop offset="0.210937" stop-color="#5F9DF1"/>
            <stop offset="0.214844" stop-color="#5F9CF1"/>
            <stop offset="0.21875" stop-color="#5F9CF0"/>
            <stop offset="0.222656" stop-color="#5F9BEF"/>
            <stop offset="0.226562" stop-color="#5F9AEF"/>
            <stop offset="0.230469" stop-color="#5F9AEE"/>
            <stop offset="0.234375" stop-color="#5F99EE"/>
            <stop offset="0.238281" stop-color="#5F98ED"/>
            <stop offset="0.242187" stop-color="#5F98EC"/>
            <stop offset="0.246094" stop-color="#5F97EC"/>
            <stop offset="0.25" stop-color="#5F97EB"/>
            <stop offset="0.253906" stop-color="#5F96EA"/>
            <stop offset="0.257812" stop-color="#5F95EA"/>
            <stop offset="0.261719" stop-color="#5F95E9"/>
            <stop offset="0.265625" stop-color="#5F94E9"/>
            <stop offset="0.269531" stop-color="#5F94E8"/>
            <stop offset="0.273437" stop-color="#5F93E7"/>
            <stop offset="0.277344" stop-color="#5F92E7"/>
            <stop offset="0.28125" stop-color="#5F92E6"/>
            <stop offset="0.285156" stop-color="#5F91E5"/>
            <stop offset="0.289062" stop-color="#5F91E5"/>
            <stop offset="0.292969" stop-color="#5F90E4"/>
            <stop offset="0.296875" stop-color="#5F8FE3"/>
            <stop offset="0.300781" stop-color="#5F8FE3"/>
            <stop offset="0.304687" stop-color="#5E8EE2"/>
            <stop offset="0.308594" stop-color="#5E8DE2"/>
            <stop offset="0.3125" stop-color="#5E8DE1"/>
            <stop offset="0.316406" stop-color="#5E8CE0"/>
            <stop offset="0.320312" stop-color="#5E8CE0"/>
            <stop offset="0.324219" stop-color="#5E8BDF"/>
            <stop offset="0.328125" stop-color="#5E8ADE"/>
            <stop offset="0.332031" stop-color="#5E8ADE"/>
            <stop offset="0.335938" stop-color="#5E89DD"/>
            <stop offset="0.339844" stop-color="#5E89DC"/>
            <stop offset="0.34375" stop-color="#5E88DC"/>
            <stop offset="0.347656" stop-color="#5E87DB"/>
            <stop offset="0.351562" stop-color="#5E87DB"/>
            <stop offset="0.355469" stop-color="#5E86DA"/>
            <stop offset="0.359375" stop-color="#5E86D9"/>
            <stop offset="0.363281" stop-color="#5E85D9"/>
            <stop offset="0.367188" stop-color="#5E84D8"/>
            <stop offset="0.371094" stop-color="#5E84D7"/>
            <stop offset="0.375" stop-color="#5E83D7"/>
            <stop offset="0.378906" stop-color="#5E82D6"/>
            <stop offset="0.382812" stop-color="#5E82D6"/>
            <stop offset="0.386719" stop-color="#5E81D5"/>
            <stop offset="0.390625" stop-color="#5E81D4"/>
            <stop offset="0.394531" stop-color="#5E80D4"/>
            <stop offset="0.398438" stop-color="#5E7FD3"/>
            <stop offset="0.402344" stop-color="#5E7FD2"/>
            <stop offset="0.40625" stop-color="#5D7ED2"/>
            <stop offset="0.410156" stop-color="#5D7ED1"/>
            <stop offset="0.414062" stop-color="#5D7DD0"/>
            <stop offset="0.417969" stop-color="#5D7CD0"/>
            <stop offset="0.421875" stop-color="#5D7CCF"/>
            <stop offset="0.425781" stop-color="#5D7BCF"/>
            <stop offset="0.429688" stop-color="#5D7BCE"/>
            <stop offset="0.433594" stop-color="#5D7ACD"/>
            <stop offset="0.4375" stop-color="#5D79CD"/>
            <stop offset="0.441406" stop-color="#5D79CC"/>
            <stop offset="0.445312" stop-color="#5D78CB"/>
            <stop offset="0.449219" stop-color="#5D77CB"/>
            <stop offset="0.453125" stop-color="#5D77CA"/>
            <stop offset="0.457031" stop-color="#5D76C9"/>
            <stop offset="0.460938" stop-color="#5D76C9"/>
            <stop offset="0.464844" stop-color="#5D75C8"/>
            <stop offset="0.46875" stop-color="#5D74C8"/>
            <stop offset="0.472656" stop-color="#5D74C7"/>
            <stop offset="0.476562" stop-color="#5D73C6"/>
            <stop offset="0.480469" stop-color="#5D73C6"/>
            <stop offset="0.484375" stop-color="#5D72C5"/>
            <stop offset="0.488281" stop-color="#5D71C4"/>
            <stop offset="0.492187" stop-color="#5D71C4"/>
            <stop offset="0.496094" stop-color="#5D70C3"/>
            <stop offset="0.5" stop-color="#5D70C3"/>
            <stop offset="0.503906" stop-color="#5D6FC2"/>
            <stop offset="0.507812" stop-color="#5D6EC1"/>
            <stop offset="0.511719" stop-color="#5C6EC1"/>
            <stop offset="0.515625" stop-color="#5C6DC0"/>
            <stop offset="0.519531" stop-color="#5C6CBF"/>
            <stop offset="0.523438" stop-color="#5C6CBF"/>
            <stop offset="0.527344" stop-color="#5C6BBE"/>
            <stop offset="0.53125" stop-color="#5C6BBD"/>
            <stop offset="0.535156" stop-color="#5C6ABD"/>
            <stop offset="0.539062" stop-color="#5C69BC"/>
            <stop offset="0.542969" stop-color="#5C69BC"/>
            <stop offset="0.546875" stop-color="#5C68BB"/>
            <stop offset="0.550781" stop-color="#5C68BA"/>
            <stop offset="0.554688" stop-color="#5C67BA"/>
            <stop offset="0.558594" stop-color="#5C66B9"/>
            <stop offset="0.5625" stop-color="#5C66B8"/>
            <stop offset="0.566406" stop-color="#5C65B8"/>
            <stop offset="0.570312" stop-color="#5C65B7"/>
            <stop offset="0.574219" stop-color="#5C64B6"/>
            <stop offset="0.578125" stop-color="#5C63B6"/>
            <stop offset="0.582031" stop-color="#5C63B5"/>
            <stop offset="0.585938" stop-color="#5C62B5"/>
            <stop offset="0.589844" stop-color="#5C61B4"/>
            <stop offset="0.59375" stop-color="#5C61B3"/>
            <stop offset="0.597656" stop-color="#5C60B3"/>
            <stop offset="0.601562" stop-color="#5C60B2"/>
            <stop offset="0.605469" stop-color="#5C5FB1"/>
            <stop offset="0.609375" stop-color="#5C5EB1"/>
            <stop offset="0.613281" stop-color="#5C5EB0"/>
            <stop offset="0.617188" stop-color="#5B5DB0"/>
            <stop offset="0.621094" stop-color="#5B5DAF"/>
            <stop offset="0.625" stop-color="#5B5CAE"/>
            <stop offset="0.628906" stop-color="#5B5BAE"/>
            <stop offset="0.632812" stop-color="#5B5BAD"/>
            <stop offset="0.636719" stop-color="#5B5AAC"/>
            <stop offset="0.640625" stop-color="#5B5AAC"/>
            <stop offset="0.644531" stop-color="#5B59AB"/>
            <stop offset="0.648438" stop-color="#5B58AA"/>
            <stop offset="0.652344" stop-color="#5B58AA"/>
            <stop offset="0.65625" stop-color="#5B57A9"/>
            <stop offset="0.660156" stop-color="#5B56A9"/>
            <stop offset="0.664062" stop-color="#5B56A8"/>
            <stop offset="0.667969" stop-color="#5B55A7"/>
            <stop offset="0.671875" stop-color="#5B55A7"/>
            <stop offset="0.675781" stop-color="#5B54A6"/>
            <stop offset="0.679688" stop-color="#5B53A5"/>
            <stop offset="0.683594" stop-color="#5B53A5"/>
            <stop offset="0.6875" stop-color="#5B52A4"/>
            <stop offset="0.691406" stop-color="#5B52A3"/>
            <stop offset="0.695312" stop-color="#5B51A3"/>
            <stop offset="0.699219" stop-color="#5B50A2"/>
            <stop offset="0.703125" stop-color="#5B50A2"/>
            <stop offset="0.707031" stop-color="#5B4FA1"/>
            <stop offset="0.710938" stop-color="#5B4FA0"/>
            <stop offset="0.714844" stop-color="#5B4EA0"/>
            <stop offset="0.71875" stop-color="#5A4D9F"/>
            <stop offset="0.722656" stop-color="#5A4D9E"/>
            <stop offset="0.726562" stop-color="#5A4C9E"/>
            <stop offset="0.730469" stop-color="#5A4B9D"/>
            <stop offset="0.734375" stop-color="#5A4B9C"/>
            <stop offset="0.738281" stop-color="#5A4A9C"/>
            <stop offset="0.742188" stop-color="#5A4A9B"/>
            <stop offset="0.746094" stop-color="#5A499B"/>
            <stop offset="0.75" stop-color="#5A489A"/>
            <stop offset="0.753906" stop-color="#5A4899"/>
            <stop offset="0.757812" stop-color="#5A4799"/>
            <stop offset="0.761719" stop-color="#5A4798"/>
            <stop offset="0.765625" stop-color="#5A4697"/>
            <stop offset="0.769531" stop-color="#5A4597"/>
            <stop offset="0.773438" stop-color="#5A4596"/>
            <stop offset="0.777344" stop-color="#5A4496"/>
            <stop offset="0.78125" stop-color="#5A4495"/>
            <stop offset="0.785156" stop-color="#5A4394"/>
            <stop offset="0.789063" stop-color="#5A4294"/>
            <stop offset="0.792969" stop-color="#5A4293"/>
            <stop offset="0.796875" stop-color="#5A4192"/>
            <stop offset="0.800781" stop-color="#5A4092"/>
            <stop offset="0.804688" stop-color="#5A4091"/>
            <stop offset="0.808594" stop-color="#5A3F90"/>
            <stop offset="0.8125" stop-color="#5A3F90"/>
            <stop offset="0.816406" stop-color="#5A3E8F"/>
            <stop offset="0.820313" stop-color="#5A3D8F"/>
            <stop offset="0.824219" stop-color="#593D8E"/>
            <stop offset="0.828125" stop-color="#593C8D"/>
            <stop offset="0.832031" stop-color="#593C8D"/>
            <stop offset="0.835938" stop-color="#593B8C"/>
            <stop offset="0.839844" stop-color="#593A8B"/>
            <stop offset="0.84375" stop-color="#593A8B"/>
            <stop offset="0.847656" stop-color="#59398A"/>
            <stop offset="0.851563" stop-color="#593989"/>
            <stop offset="0.855469" stop-color="#593889"/>
            <stop offset="0.859375" stop-color="#593788"/>
            <stop offset="0.863281" stop-color="#593788"/>
            <stop offset="0.867188" stop-color="#593687"/>
            <stop offset="0.871094" stop-color="#593686"/>
            <stop offset="0.875" stop-color="#593586"/>
            <stop offset="1" stop-color="#593586"/>
        </linearGradient>
    </defs>
</svg>
